inDegrees=yes
name=ik_S41_A10_T01
DataType=double
version=3
OpenSimVersion=4.3-2021-08-27-4bc7ad9
endheader
time	pelvis_tilt	pelvis_list	pelvis_rotation	pelvis_tx	pelvis_ty	pelvis_tz	hip_flexion_r	hip_adduction_r	hip_rotation_r	knee_angle_r	knee_angle_r_beta	ankle_angle_r	subtalar_angle_r	mtp_angle_r	hip_flexion_l	hip_adduction_l	hip_rotation_l	knee_angle_l	knee_angle_l_beta	ankle_angle_l	subtalar_angle_l	mtp_angle_l	lumbar_extension	lumbar_bending	lumbar_rotation	arm_flex_r	arm_add_r	arm_rot_r	elbow_flex_r	pro_sup_r	wrist_flex_r	wrist_dev_r	arm_flex_l	arm_add_l	arm_rot_l	elbow_flex_l	pro_sup_l	wrist_flex_l	wrist_dev_l
5.119999999999979	-1.247754901530436	-0.4065784912516524	22.04973251110238	0	0.9399999999999999	0	43.70335443994075	-10.03228198828312	-10.0187955594265	53.81668847876657	0.9392784064745751	0	0	0	43.70335443994075	-10.03228198828312	-10.0187955594265	53.81668847876657	0.9392784064745751	0	0	0	-1.061766694794712	-0.07578850594737463	-0.1640469894943178	96.03126798366101	-3.048885218567299	-11.80195373170153	54.32242512430886	102.4909786391229	0	0	78.6225631766733	-2.921723492929936	-5.508971327712461	83.0226250472053	52.05639712807026	0	0
5.139999999999978	-1.229813041520684	-0.4218530220362808	22.26303844594111	0	0.9399999999999999	0	43.70437542164324	-10.03219330616713	-10.018762426024	53.81731260626199	0.9392892995543223	0	0	0	43.70437542164324	-10.03219330616713	-10.018762426024	53.81731260626199	0.9392892995543223	0	0	0	-1.052064612570126	-0.08896428177884724	-0.3622168440568727	96.49901394098079	-3.586436581128686	-11.77209893527143	56.9978187875209	103.3973598735704	0	0	78.7544742497425	-4.34922525973155	-5.555408148021896	86.28294614395486	52.6071435811875	0	0
5.159999999999978	-1.208381722668588	-0.3808374888372746	22.51747369676795	0	0.9399999999999999	0	43.7052024372522	-10.03212173913164	-10.01873564587926	53.81781923747842	0.9392981419371426	0	0	0	43.7052024372522	-10.03212173913164	-10.01873564587926	53.81781923747842	0.9392981419371426	0	0	0	-1.018081324335423	-0.05268680606110329	-0.6118173269017803	96.5899508263891	-4.134876069470403	-10.92038037103353	58.16637285102509	102.641840886495	0	0	78.79879232157704	-5.537972579228282	-5.613557933698674	89.2479995228792	53.84337146104785	0	0
5.179999999999978	-1.127851617275052	-0.2912275951161746	22.67044474545438	0	0.9399999999999999	0	43.70588043381675	-10.03206295613473	-10.01871365792501	53.81823330723756	0.9393053688177725	0	0	0	43.70588043381675	-10.03206295613473	-10.01871365792501	53.81823330723756	0.9393053688177725	0	0	0	-0.9099954866725427	0.00193767167679144	-0.8286256388199196	96.36912677411276	-3.882849706276926	-10.73094151491249	60.81190074668015	102.4808798407625	0	0	78.98146662835047	-6.66586033320661	-5.724404913176346	90.48494862439706	54.13398643957969	0	0
5.199999999999977	-1.067129903022884	-0.2384703369435756	22.78815336817646	0	0.9399999999999999	0	43.70646226349678	-10.0320130490269	-10.01869491868972	53.8185919191257	0.9393116277759572	0	0	0	43.70646226349678	-10.0320130490269	-10.01869491868972	53.8185919191257	0.9393116277759572	0	0	0	-0.8335447477012343	0.02919070023811506	-0.9886664275434345	96.27039814186932	-4.170302783360937	-9.636453204885516	62.9920815796061	101.2527788167203	0	0	78.8391684373006	-6.80451308598763	-6.03893381755848	92.59181378200334	56.9600193667703	0	0
5.219999999999977	-0.9849002897232997	-0.2036820825969948	22.95061840157588	0	0.9399999999999999	0	43.70710658359813	-10.03195742295046	-10.01867407379937	53.8189862708366	0.9393185105117232	0	0	0	43.70710658359813	-10.03195742295046	-10.01867407379937	53.8189862708366	0.9393185105117232	0	0	0	-0.7450197783229232	0.03245887653135096	-1.230269261257876	96.21521472347524	-4.418401901503491	-8.844151294409501	62.80832106679676	100.5508359168836	0	0	79.3509729237679	-7.895417746338836	-6.318365131362603	93.95778994220917	58.62104080753593	0	0
5.239999999999976	-0.8876360443646648	-0.1719845757410135	22.99910527962659	0	0.9399999999999999	0	43.70785473172205	-10.03189279496888	-10.01864985458155	53.81944336870243	0.939326488374486	0	0	0	43.70785473172205	-10.03189279496888	-10.01864985458155	53.81944336870243	0.939326488374486	0	0	0	-0.6439218348205771	0.02469333224578174	-1.445511003505566	96.30988654705538	-4.238772473465262	-8.165277720865079	64.46928958904438	100.8707086264972	0	0	79.95521906287485	-8.971740590747784	-6.571010361488757	94.89026462338566	59.38576332563246	0	0
5.259999999999976	-0.756504298729001	-0.1138938090524657	22.96597607020546	0	0.9399999999999999	0	43.72295421696434	-10.03104018747483	-10.0182739628921	53.83173753480437	0.9395410620517518	0	0	0	43.72295421696434	-10.03104018747483	-10.0182739628921	53.83173753480437	0.9395410620517518	0	0	0	-0.5013872489742245	0.0287837141288979	-1.597701681042935	96.46121605125015	-3.811407532409268	-7.59048435019824	67.50759159809739	103.3620033576626	0	0	80.40787385173826	-9.844223929384924	-6.987831309163909	95.33500533221435	59.36339985189604	0	0
5.279999999999975	-0.6584614828784027	-0.07053646670672564	23.07636315279581	0	0.9399999999999999	0	43.72373400233608	-10.03097384334867	-10.01824892767345	53.83221396621644	0.9395493773485525	0	0	0	43.72373400233608	-10.03097384334867	-10.01824892767345	53.83221396621644	0.9395493773485525	0	0	0	-0.3948889894537612	0.03085151107268494	-1.732740098730587	96.64801759287268	-3.527424518472306	-7.1579054175375	67.68527332350983	103.4621136451292	0	0	81.07650687810474	-10.91006341831317	-7.568768832000133	95.42225737309786	57.88709666763152	0	0
